<svg width="19" height="18" viewBox="0 0 19 18" fill="none" xmlns="http://www.w3.org/2000/svg">
<path d="M9.04919 17.5377C4.04764 17.5328 -0.00332942 13.6048 2.05336e-06 8.763C0.00333764 3.92124 4.05971 -0.00161131 9.06126 4.96512e-07C14.0628 0.0016133 18.1165 3.92708 18.1165 8.76884C18.1135 13.614 14.0542 17.5396 9.04919 17.5377ZM1.81165 8.91966C1.85451 12.779 5.10986 15.88 9.09678 15.8593C13.0837 15.8385 16.3044 12.7039 16.3044 8.84425C16.3044 4.98465 13.0837 1.85002 9.09678 1.82917C5.10986 1.80853 1.85451 4.90946 1.81165 8.76884V8.91966ZM9.96407 13.1533H8.15242V11.3995H9.96407V13.1533ZM9.96407 9.64572H8.15242L8.15242 4.38442H9.96407L9.96407 9.64572Z" fill="#7B010E"/>
</svg>
